PathFileType	4	(X/Y/Z)	/Users/itak/Documents/Research/Walk-IL/dataset/trc/00204_00008.trc
DataRate	CameraRate	NumFrames	NumMarkers	Units	OrigDataRate	OrigDataStartFrame	OrigNumFrames
100.000000	100.000000	4	53	mm	100.000000	124	499
Frame#	Time	RPSI			LPSI			L3			STRN			T10			C7			CLAV			RBAK			LBAK			LSHO			LUPA			LAEL			LAOL			LWTS			LWPS			LFRA			LIFD			LHPS			LHTS			RSHO			RUPA			RAEL			RAOL			RWTS			RWPS			RFRA			RIFD			RHTS			RHPS			RBHD			LFHD			RFHD			LBHD			LHIP			RHIP			RASI			LASI			LKNE			LTHI			LANK			LTIP			LTOE			LMT1			LMT5			LHEE			RKNE			RTHI			RANK			RTIP			RTOE			RMT1			RMT5			RHEE			
		X1	Y1	Z1	X2	Y2	Z2	X3	Y3	Z3	X4	Y4	Z4	X5	Y5	Z5	X6	Y6	Z6	X7	Y7	Z7	X8	Y8	Z8	X9	Y9	Z9	X10	Y10	Z10	X11	Y11	Z11	X12	Y12	Z12	X13	Y13	Z13	X14	Y14	Z14	X15	Y15	Z15	X16	Y16	Z16	X17	Y17	Z17	X18	Y18	Z18	X19	Y19	Z19	X20	Y20	Z20	X21	Y21	Z21	X22	Y22	Z22	X23	Y23	Z23	X24	Y24	Z24	X25	Y25	Z25	X26	Y26	Z26	X27	Y27	Z27	X28	Y28	Z28	X29	Y29	Z29	X30	Y30	Z30	X31	Y31	Z31	X32	Y32	Z32	X33	Y33	Z33	X34	Y34	Z34	X35	Y35	Z35	X36	Y36	Z36	X37	Y37	Z37	X38	Y38	Z38	X39	Y39	Z39	X40	Y40	Z40	X41	Y41	Z41	X42	Y42	Z42	X43	Y43	Z43	X44	Y44	Z44	X45	Y45	Z45	X46	Y46	Z46	X47	Y47	Z47	X48	Y48	Z48	X49	Y49	Z49	X50	Y50	Z50	X51	Y51	Z51	X52	Y52	Z52	X53	Y53	Z53	

125	1.24	-1539.188720703125	1049.018920898438	-628.728759765625	-1522.081909179688	1048.865966796875	-751.7078857421875	-1526.284301757812	1088.317504882812	-690.4627685546875	-1249.240356445312	1268.717651367188	-662.32958984375	-1541.664184570312	1249.754272460938	-709.019775390625	-1445.328857421875	1510.817993164062	-714.037841796875	-1261.209106445312	1385.624877929688	-675.912109375	-1548.579956054688	1346.5146484375	-614.8693237304688	-1437.326293945312	1484.594604492188	-814.4539794921875	-1349.533081054688	1461.55419921875	-878.1182250976562	-1376.568359375	1332.531494140625	-957.1792602539062	-1375.106201171875	1112.273071289062	-973.5135498046875	-1446.244506835938	1105.485595703125	-921.8992309570312	-1314.879150390625	868.3201293945312	-907.3063354492188	-1374.963500976562	858.42138671875	-975.9728393554688	-1369.445922851562	1000.930847167969	-983.166748046875	-1340.348876953125	687.110595703125	-884.6544189453125	-1366.500732421875	787.081298828125	-968.327392578125	-1308.101318359375	787.6268310546875	-925.5701904296875	-1416.039184570312	1486.623657226562	-524.4967041015625	-1453.434814453125	1424.353271484375	-459.02294921875	-1498.7705078125	1136.486938476562	-406.2159118652344	-1478.723876953125	1125.349853515625	-501.7818603515625	-1357.118041992188	914.9981079101562	-372.1951599121094	-1441.078491210938	894.9429321289062	-350.2613220214844	-1480.418334960938	1065.254028320312	-379.5163269042969	-1326.55517578125	729.142822265625	-385.0697631835938	-1328.987182617188	825.1375122070312	-350.3635864257812	-1408.449584960938	814.2531127929688	-338.3474731445312	-1377.30712890625	1666.9794921875	-630.4591064453125	-1187.647094726562	1691.731689453125	-733.8440551757812	-1207.46728515625	1695.191650390625	-606.1207275390625	-1362.759033203125	1672.134399414062	-768.017822265625	-1413.998413085938	976.7551879882812	-857.6056518554688	-1404.132568359375	1008.275695800781	-484.4556579589844	-1315.263793945312	1028.169677734375	-535.7666015625	-1291.603393554688	1005.859497070312	-793.4190673828125	-1445.6923828125	481.3373107910156	-783.4212646484375	-1422.70458984375	621.1027221679688	-819.800048828125	-1587.826538085938	38.42509841918945	-747.2410278320312	-1512.892211914062	263.0115356445312	-777.9735717773438	-1366.305786132812	39.56566619873047	-736.5391235351562	-1413.839965820312	39.63499450683594	-685.2923583984375	-1482.436279296875	32.38513946533203	-793.258544921875	-1633.577026367188	37.18013000488281	-674.3062744140625	-1189.22265625	545.38525390625	-504.970458984375	-1281.596557617188	802.5258178710938	-473.3617858886719	-1278.951782226562	55.27061462402344	-483.4317321777344	-1172.93994140625	420.5802307128906	-510.4683227539062	-1061.372680664062	85.04437255859375	-494.3018188476562	-1108.470825195312	70.80413055419922	-543.5054321289062	-1172.942993164062	63.73026657104492	-438.9055480957031	-1320.558227539062	48.75011825561523	-554.0835571289062	
126	1.25	-1534.946899414062	1048.23828125	-628.7799682617188	-1518.146118164062	1048.027221679688	-751.7772216796875	-1522.172485351562	1087.5595703125	-690.5081176757812	-1244.877807617188	1267.601440429688	-662.6441650390625	-1537.305297851562	1248.997192382812	-709.0388793945312	-1440.691162109375	1509.962646484375	-713.9295043945312	-1256.735961914062	1384.5322265625	-676.1112670898438	-1543.966674804688	1345.606079101562	-614.8727416992188	-1432.839721679688	1483.841430664062	-814.353515625	-1345.192504882812	1460.849243164062	-878.1612548828125	-1372.467407226562	1331.995971679688	-957.3961791992188	-1371.444580078125	1111.700805664062	-974.0261840820312	-1442.563842773438	1105.022338867188	-922.4110107421875	-1311.437622070312	867.7387084960938	-907.6782836914062	-1371.470703125	857.7943725585938	-976.3632202148438	-1365.89501953125	1000.309143066406	-983.6469116210938	-1336.952514648438	686.5436401367188	-884.7943725585938	-1363.032592773438	786.4434814453125	-968.6156616210938	-1304.64404296875	787.0274658203125	-925.827880859375	-1411.281860351562	1485.56787109375	-524.4755249023438	-1448.819091796875	1423.420532226562	-459.0463256835938	-1495.058959960938	1135.973876953125	-405.698486328125	-1474.848266601562	1124.446533203125	-501.2139282226562	-1354.829956054688	913.7327880859375	-370.9153137207031	-1438.894409179688	894.4515991210938	-348.5711364746094	-1477.1494140625	1064.810424804688	-378.7226257324219	-1325.8408203125	727.5172729492188	-383.2366333007812	-1327.328979492188	823.6692504882812	-348.8992309570312	-1406.872436523438	813.5400390625	-336.445556640625	-1372.59130859375	1665.683715820312	-629.8697509765625	-1182.98388671875	1690.888916015625	-733.2311401367188	-1202.786010742188	1693.796875	-605.493408203125	-1358.114624023438	1671.445678710938	-767.440673828125	-1410.336303710938	975.8421630859375	-857.8692016601562	-1399.568603515625	1007.660461425781	-484.8791198730469	-1310.801635742188	1027.416625976562	-536.296142578125	-1287.747192382812	1004.914794921875	-793.928466796875	-1444.019409179688	480.9189758300781	-783.358642578125	-1420.292236328125	620.4956665039062	-819.8299560546875	-1587.792236328125	38.48217010498047	-747.1654052734375	-1512.102783203125	262.8668823242188	-777.8926391601562	-1366.307739257812	39.52074813842773	-736.5404052734375	-1413.8056640625	39.67595291137695	-685.3790893554688	-1482.479614257812	32.37091445922852	-793.2831420898438	-1633.5419921875	37.21779632568359	-674.1824340820312	-1184.40380859375	545.3994750976562	-505.0372314453125	-1276.709106445312	802.28515625	-473.4760131835938	-1258.069580078125	52.42607116699219	-484.0488586425781	-1164.915893554688	421.2225952148438	-510.5834350585938	-1041.555908203125	88.62169647216797	-496.0799865722656	-1088.308349609375	73.25233459472656	-544.9903564453125	-1151.95751953125	63.88919448852539	-440.2725219726562	-1299.414916992188	44.84794616699219	-554.6765747070312	
127	1.26	-1530.539916992188	1047.365844726562	-628.7841186523438	-1514.043334960938	1047.107543945312	-751.8016357421875	-1517.895263671875	1086.719482421875	-690.4876708984375	-1240.375610351562	1266.3984375	-662.9457397460938	-1532.800048828125	1248.152954101562	-708.9511108398438	-1435.926025390625	1509.037231445312	-713.7554931640625	-1252.103637695312	1383.356201171875	-676.2920532226562	-1539.14501953125	1344.574951171875	-614.7831420898438	-1428.243774414062	1482.999389648438	-814.1729736328125	-1340.764404296875	1460.05322265625	-878.1555786132812	-1368.320678710938	1331.368408203125	-957.559814453125	-1367.716674804688	1111.038208007812	-974.4886474609375	-1438.7919921875	1104.457153320312	-922.8462524414062	-1307.828247070312	867.101318359375	-907.9655151367188	-1367.81103515625	857.0665283203125	-976.637451171875	-1362.2490234375	999.5906982421875	-984.0575561523438	-1333.255737304688	685.92529296875	-884.7926025390625	-1359.363891601562	785.717529296875	-968.7736206054688	-1300.96484375	786.3842163085938	-925.9909057617188	-1406.3251953125	1484.425659179688	-524.3816528320312	-1444.010986328125	1422.389892578125	-459.0035705566406	-1491.20556640625	1135.3388671875	-405.3603820800781	-1470.656005859375	1123.440795898438	-500.7850341796875	-1352.54248046875	912.3417358398438	-369.4870910644531	-1436.762573242188	893.8275146484375	-347.0390014648438	-1473.80224609375	1064.250366210938	-378.09423828125	-1325.069458007812	725.788330078125	-381.148193359375	-1325.741577148438	822.0850830078125	-347.1751403808594	-1405.409301757812	812.7048950195312	-334.6006469726562	-1367.76416015625	1664.23779296875	-629.2149047851562	-1178.2421875	1690.041137695312	-732.5414428710938	-1198.027709960938	1692.33740234375	-604.7913818359375	-1353.365234375	1670.661865234375	-766.7946166992188	-1406.509887695312	974.8729858398438	-858.1109008789062	-1394.75634765625	1006.922485351562	-485.2528686523438	-1306.170776367188	1026.548828125	-536.7948608398438	-1283.72412109375	1003.906433105469	-794.4002075195312	-1442.359252929688	480.5047912597656	-783.2996215820312	-1417.8369140625	619.876708984375	-819.8529663085938	-1587.767944335938	38.53660583496094	-747.093505859375	-1511.332641601562	262.7388916015625	-777.8047485351562	-1366.313232421875	39.47995758056641	-736.5443725585938	-1413.75537109375	39.74898529052734	-685.5003051757812	-1482.525390625	32.34503555297852	-793.3369750976562	-1633.51513671875	37.26761627197266	-674.0560913085938	-1179.6708984375	545.2124633789062	-504.9621887207031	-1271.799194335938	801.8442993164062	-473.47412109375	-1237.171875	49.96194076538086	-484.726806640625	-1156.988037109375	421.7866821289062	-510.5861511230469	-1021.918212890625	92.46429443359375	-497.8211059570312	-1068.242309570312	75.97216033935547	-546.4638671875	-1131.05419921875	64.39421844482422	-441.718505859375	-1278.098022460938	41.02487182617188	-555.63427734375	
128	1.27	-1525.979614257812	1046.38818359375	-628.7485961914062	-1509.772705078125	1046.097290039062	-751.783935546875	-1513.44677734375	1085.78564453125	-690.4090576171875	-1235.730224609375	1265.105346679688	-663.2276000976562	-1528.147827148438	1247.222900390625	-708.7589111328125	-1431.029174804688	1508.038940429688	-713.5093383789062	-1247.313842773438	1382.093627929688	-676.44677734375	-1534.122192382812	1343.428466796875	-614.5975341796875	-1423.531494140625	1482.068725585938	-813.9116821289062	-1336.234985351562	1459.161865234375	-878.0947265625	-1364.11181640625	1330.645141601562	-957.6615600585938	-1363.913452148438	1110.281860351562	-974.8882446289062	-1434.9208984375	1103.78466796875	-923.1903686523438	-1304.045288085938	866.3958740234375	-908.171630859375	-1363.987915039062	856.238037109375	-976.799072265625	-1358.500122070312	998.7744750976562	-984.391845703125	-1329.276733398438	685.2439575195312	-884.6720581054688	-1355.5048828125	784.9017333984375	-968.8130493164062	-1297.080200195312	785.6822509765625	-926.0762329101562	-1401.171752929688	1483.195434570312	-524.211669921875	-1439.006469726562	1421.259033203125	-458.8886108398438	-1487.207641601562	1134.578369140625	-405.1965942382812	-1466.154174804688	1122.328002929688	-500.490234375	-1350.254272460938	910.82470703125	-367.9161376953125	-1434.682983398438	893.0635986328125	-345.6889953613281	-1470.369995117188	1063.5673828125	-377.6304321289062	-1324.2255859375	723.9635009765625	-378.8074340820312	-1324.224853515625	820.392822265625	-345.1905822753906	-1404.046264648438	811.745361328125	-332.8301391601562	-1362.827270507812	1662.643432617188	-628.4972534179688	-1173.418090820312	1689.186767578125	-731.7781982421875	-1193.1875	1690.81787109375	-604.0198364257812	-1348.514770507812	1669.777954101562	-766.0803833007812	-1402.505737304688	973.8449096679688	-858.3350830078125	-1389.703491210938	1006.058471679688	-485.5780944824219	-1301.374755859375	1025.562744140625	-537.2621459960938	-1279.542724609375	1002.830505371094	-794.8413696289062	-1440.67529296875	480.0885925292969	-783.2423095703125	-1415.324462890625	619.2451171875	-819.869140625	-1587.753295898438	38.58669662475586	-747.025390625	-1510.580688476562	262.6280517578125	-777.7138061523438	-1366.322143554688	39.44596099853516	-736.5532836914062	-1413.693237304688	39.85518264770508	-685.652099609375	-1482.57275390625	32.30231475830078	-793.4215087890625	-1633.496459960938	37.33071136474609	-673.9276733398438	-1174.984619140625	544.833251953125	-504.7596130371094	-1266.866943359375	801.2116088867188	-473.3766479492188	-1216.363891601562	47.88628387451172	-485.4895935058594	-1149.14453125	422.2724304199219	-510.4964599609375	-1002.548278808594	96.56155395507812	-499.5441284179688	-1048.4072265625	78.96162414550781	-547.9490966796875	-1110.351684570312	65.21880340576172	-443.254638671875	-1256.848388671875	37.37277984619141	-556.8941040039062	
